<svg xmlns="http://www.w3.org/2000/svg" viewBox="0 0 900 900" role="img" aria-label="AI face scan visual">
  <defs>
    <radialGradient id="bg" cx="50%" cy="44%" r="62%">
      <stop offset="0" stop-color="#ffffff"/>
      <stop offset="0.45" stop-color="#eef3ff"/>
      <stop offset="1" stop-color="#e5ddff"/>
    </radialGradient>
    <linearGradient id="skin" x1="0" y1="0" x2="0" y2="1">
      <stop offset="0" stop-color="#ffe4e5"/>
      <stop offset="0.52" stop-color="#f6c6d1"/>
      <stop offset="1" stop-color="#e7b2c1"/>
    </linearGradient>
    <linearGradient id="hair" x1="0" y1="0" x2="1" y2="1">
      <stop offset="0" stop-color="#1c2140"/>
      <stop offset="0.55" stop-color="#596197"/>
      <stop offset="1" stop-color="#2a2342"/>
    </linearGradient>
    <linearGradient id="beam" x1="0" y1="0" x2="1" y2="0">
      <stop offset="0" stop-color="#66f4ff" stop-opacity="0"/>
      <stop offset="0.43" stop-color="#66f4ff" stop-opacity="0.9"/>
      <stop offset="0.58" stop-color="#df69ff" stop-opacity="0.95"/>
      <stop offset="1" stop-color="#df69ff" stop-opacity="0"/>
    </linearGradient>
    <filter id="softGlow" x="-30%" y="-30%" width="160%" height="160%">
      <feGaussianBlur stdDeviation="10" result="blur"/>
      <feMerge>
        <feMergeNode in="blur"/>
        <feMergeNode in="SourceGraphic"/>
      </feMerge>
    </filter>
    <filter id="shadow" x="-20%" y="-20%" width="140%" height="140%">
      <feDropShadow dx="0" dy="22" stdDeviation="28" flood-color="#7b83d9" flood-opacity="0.25"/>
    </filter>
  </defs>
  <rect width="900" height="900" fill="url(#bg)"/>
  <circle cx="450" cy="456" r="332" fill="none" stroke="#ffffff" stroke-width="2" opacity="0.54"/>
  <circle cx="450" cy="456" r="286" fill="none" stroke="#b2c9ff" stroke-width="2" opacity="0.38" stroke-dasharray="10 15"/>
  <path d="M221 285h78M221 285v78M679 285h-78M679 285v78M221 676h78M221 676v-78M679 676h-78M679 676v-78" fill="none" stroke="#8cf8ff" stroke-width="12" stroke-linecap="round" opacity="0.76" filter="url(#softGlow)"/>
  <g filter="url(#shadow)">
    <path d="M242 423c1-173 86-286 208-286s207 113 208 286c-17-116-94-190-208-190S259 307 242 423z" fill="url(#hair)" opacity="0.98"/>
    <path d="M290 392c0-158 63-244 160-244s160 86 160 244c0 191-73 316-160 316S290 583 290 392z" fill="url(#skin)"/>
    <path d="M312 246c43-71 232-74 276 8-38-27-82-38-136-38-56 0-100 11-140 30z" fill="#242b55" opacity="0.72"/>
    <path d="M288 436c-42-13-62 17-48 65 12 42 36 61 65 52M612 436c42-13 62 17 48 65-12 42-36 61-65 52" fill="#efb8c6"/>
    <path d="M322 478c18 18 45 16 62-4M578 478c-18 18-45 16-62-4" fill="none" stroke="#d390a4" stroke-width="5" stroke-linecap="round" opacity="0.34"/>
    <ellipse cx="384" cy="484" rx="44" ry="24" fill="#e99cb4" opacity="0.28"/>
    <ellipse cx="516" cy="484" rx="44" ry="24" fill="#e99cb4" opacity="0.28"/>
    <path d="M337 355c41-28 86-29 123-4M440 351c42-25 86-24 124 5" fill="none" stroke="#3c334f" stroke-width="13" stroke-linecap="round" opacity="0.6"/>
    <path d="M360 413c33 21 66 21 98-2M442 411c35 23 69 22 101 1" fill="none" stroke="#5b4d67" stroke-width="8" stroke-linecap="round" opacity="0.54"/>
    <path d="M360 407c32 15 66 15 98 0M443 407c33 16 67 16 100 0" fill="none" stroke="#fff6fb" stroke-width="3" stroke-linecap="round" opacity="0.48"/>
    <path d="M450 384c12 62 13 111-16 159 20 13 47 13 70 0" fill="none" stroke="#b36c85" stroke-width="7" stroke-linecap="round" opacity="0.5"/>
    <path d="M420 512c20 9 39 9 59 0" fill="none" stroke="#f7d5de" stroke-width="4" stroke-linecap="round" opacity="0.56"/>
    <path d="M389 607c42 35 82 35 124 0" fill="none" stroke="#a84375" stroke-width="13" stroke-linecap="round" opacity="0.66"/>
    <path d="M395 605c37 13 75 13 112 0" fill="none" stroke="#ffe6ec" stroke-width="5" stroke-linecap="round" opacity="0.7"/>
    <path d="M331 294c25-84 81-130 119-130 42 0 96 47 121 129" fill="none" stroke="#ffffff" stroke-width="5" stroke-linecap="round" opacity="0.22"/>
    <path d="M326 313c77-52 174-54 249 0" fill="none" stroke="#ffffff" stroke-width="4" stroke-linecap="round" opacity="0.2"/>
  </g>
  <g fill="none" stroke="#ffffff" stroke-width="2.2" opacity="0.88" filter="url(#softGlow)">
    <path d="M450 238v468M322 420h256M348 314l204 196M552 314 348 510"/>
    <path d="M337 346c52-65 176-65 226 0M328 520c64 93 180 91 244-1"/>
    <path d="M349 331 381 417 340 506 450 590 560 506 518 417 551 331"/>
    <path d="M381 417 450 370 518 417 450 470zM340 506l110-36 110 36"/>
  </g>
  <g fill="#ffffff" filter="url(#softGlow)">
    <circle cx="349" cy="331" r="6"/><circle cx="450" cy="238" r="6"/><circle cx="551" cy="331" r="6"/>
    <circle cx="381" cy="417" r="6"/><circle cx="450" cy="370" r="5"/><circle cx="518" cy="417" r="6"/>
    <circle cx="340" cy="506" r="6"/><circle cx="450" cy="470" r="5"/><circle cx="560" cy="506" r="6"/>
    <circle cx="450" cy="590" r="6"/>
  </g>
  <rect x="130" y="438" width="640" height="8" rx="4" fill="url(#beam)" filter="url(#softGlow)"/>
  <rect x="446" y="132" width="8" height="640" rx="4" fill="#8af7ff" opacity="0.48" filter="url(#softGlow)"/>
</svg>
